<svg width="235" height="26" viewBox="0 0 235 26" fill="none" xmlns="http://www.w3.org/2000/svg">
<path d="M17.538 7.97886H12.9357C12.8743 7.50636 12.7485 7.07989 12.5583 6.69943C12.3681 6.31898 12.1165 5.99375 11.8035 5.72375C11.4906 5.45375 11.1193 5.24818 10.6898 5.10705C10.2664 4.95977 9.79693 4.88614 9.28148 4.88614C8.36716 4.88614 7.57864 5.11011 6.91591 5.55807C6.25932 6.00602 5.75307 6.65341 5.39716 7.50023C5.04739 8.34704 4.8725 9.37182 4.8725 10.5745C4.8725 11.8264 5.05045 12.8757 5.40636 13.7225C5.76841 14.5632 6.27466 15.1983 6.92511 15.6278C7.5817 16.0512 8.35795 16.263 9.25386 16.263C9.75705 16.263 10.2142 16.1985 10.6253 16.0697C11.0426 15.9408 11.4077 15.7536 11.7207 15.5082C12.0398 15.2566 12.3006 14.9528 12.5031 14.5969C12.7117 14.2349 12.8559 13.8268 12.9357 13.3727L17.538 13.4003C17.4582 14.2349 17.2158 15.0572 16.8108 15.8672C16.4119 16.6772 15.8627 17.4166 15.1632 18.0855C14.4636 18.7482 13.6107 19.2759 12.6043 19.6686C11.6041 20.0614 10.4566 20.2577 9.16182 20.2577C7.45591 20.2577 5.92795 19.8834 4.57795 19.1348C3.23409 18.38 2.1725 17.2816 1.39318 15.8395C0.613864 14.3975 0.224205 12.6425 0.224205 10.5745C0.224205 8.50045 0.62 6.74239 1.41159 5.30034C2.20318 3.8583 3.27398 2.76295 4.62398 2.01432C5.97398 1.26568 7.48659 0.891363 9.16182 0.891363C10.3032 0.891363 11.3586 1.05091 12.3282 1.37C13.2977 1.68295 14.1507 2.14318 14.887 2.75068C15.6234 3.35205 16.2217 4.09148 16.6819 4.96898C17.1422 5.84648 17.4275 6.84977 17.538 7.97886ZM24.1307 20.2393C23.2287 20.2393 22.4279 20.089 21.7283 19.7883C21.0349 19.4815 20.4857 19.0212 20.0807 18.4076C19.6818 17.7878 19.4824 17.0116 19.4824 16.0789C19.4824 15.2934 19.6205 14.6307 19.8966 14.0907C20.1728 13.5507 20.5532 13.1119 21.038 12.7744C21.5228 12.4369 22.0812 12.1823 22.7132 12.0105C23.3453 11.8325 24.0203 11.7128 24.7382 11.6515C25.5421 11.5778 26.1895 11.5011 26.6804 11.4214C27.1713 11.3355 27.5272 11.2158 27.7481 11.0624C27.9751 10.9028 28.0887 10.6789 28.0887 10.3905V10.3444C28.0887 9.87193 27.9261 9.50682 27.6008 9.24909C27.2756 8.99136 26.8368 8.8625 26.2846 8.8625C25.6893 8.8625 25.2107 8.99136 24.8487 9.24909C24.4866 9.50682 24.2565 9.86273 24.1583 10.3168L20.0071 10.1695C20.1298 9.31045 20.4458 8.54341 20.9551 7.86841C21.4706 7.18727 22.1763 6.65341 23.0722 6.26682C23.9742 5.87409 25.0573 5.67773 26.3214 5.67773C27.2234 5.67773 28.0549 5.78511 28.8158 5.99989C29.5767 6.20852 30.2395 6.51534 30.804 6.92034C31.3686 7.3192 31.8042 7.81011 32.1111 8.39307C32.424 8.97602 32.5805 9.64182 32.5805 10.3905V20H28.3464V18.0302H28.2359C27.9843 18.5089 27.6622 18.9139 27.2695 19.2452C26.8829 19.5766 26.4257 19.8251 25.898 19.9908C25.3764 20.1565 24.7873 20.2393 24.1307 20.2393ZM25.5206 17.2939C26.0054 17.2939 26.4411 17.1957 26.8276 16.9993C27.2204 16.803 27.5333 16.533 27.7665 16.1893C27.9997 15.8395 28.1163 15.4345 28.1163 14.9743V13.6305C27.9874 13.698 27.8309 13.7593 27.6468 13.8145C27.4689 13.8698 27.2725 13.9219 27.0578 13.971C26.843 14.0201 26.6221 14.0631 26.395 14.0999C26.168 14.1367 25.9501 14.1705 25.7415 14.2011C25.3181 14.2686 24.9561 14.373 24.6554 14.5141C24.3608 14.6552 24.1338 14.8393 23.9742 15.0664C23.8208 15.2873 23.7441 15.5511 23.7441 15.858C23.7441 16.3243 23.9098 16.6802 24.2412 16.9257C24.5787 17.1711 25.0051 17.2939 25.5206 17.2939ZM39.3918 16.2906L39.4103 10.9243H40.0362L44.0125 5.86182H49.1118L43.2025 13.115H42.0151L39.3918 16.2906ZM35.3326 20V1.14909H39.8337V20H35.3326ZM44.1138 20L40.4136 14.1275L43.3774 10.9335L49.3143 20H44.1138ZM56.7493 20.2669C55.2705 20.2669 53.9941 19.9755 52.9202 19.3925C51.8525 18.8034 51.0302 17.9658 50.4534 16.8797C49.8827 15.7874 49.5974 14.4895 49.5974 12.9861C49.5974 11.5257 49.8858 10.2493 50.4626 9.15705C51.0394 8.05864 51.8525 7.20568 52.9018 6.59818C53.9511 5.98455 55.1876 5.67773 56.6112 5.67773C57.6176 5.67773 58.5381 5.8342 59.3726 6.14716C60.2072 6.46011 60.9282 6.92341 61.5357 7.53705C62.1432 8.15068 62.6157 8.90852 62.9532 9.81057C63.2907 10.7065 63.4594 11.7343 63.4594 12.8941V14.017H51.1714V11.403H59.2714C59.2652 10.9243 59.1517 10.4978 58.9308 10.1235C58.7099 9.7492 58.4061 9.45773 58.0195 9.24909C57.6391 9.03432 57.2003 8.92693 56.7033 8.92693C56.2001 8.92693 55.7491 9.04045 55.3502 9.2675C54.9514 9.48841 54.6353 9.79216 54.4022 10.1787C54.169 10.5592 54.0462 10.9918 54.034 11.4766V14.1367C54.034 14.7135 54.1475 15.2198 54.3745 15.6555C54.6016 16.085 54.9237 16.4194 55.341 16.6587C55.7583 16.8981 56.2553 17.0177 56.8322 17.0177C57.231 17.0177 57.5931 16.9625 57.9183 16.852C58.2435 16.7416 58.5227 16.579 58.7559 16.3642C58.9891 16.1494 59.164 15.8856 59.2806 15.5726L63.4134 15.6923C63.2416 16.6189 62.8642 17.4258 62.2812 18.1131C61.7044 18.7942 60.9466 19.325 60.0077 19.7055C59.0689 20.0798 57.9827 20.2669 56.7493 20.2669ZM78.1016 10.1787L73.9687 10.2892C73.9258 9.99466 73.8092 9.73386 73.6189 9.50682C73.4287 9.27364 73.1802 9.09261 72.8734 8.96375C72.5727 8.82875 72.2229 8.76125 71.8241 8.76125C71.3025 8.76125 70.8576 8.86557 70.4894 9.0742C70.1274 9.28284 69.9494 9.56511 69.9555 9.92102C69.9494 10.1972 70.0599 10.4365 70.2869 10.639C70.5201 10.8415 70.9343 11.0041 71.5295 11.1268L74.2541 11.6423C75.6654 11.9123 76.7147 12.3602 77.402 12.9861C78.0954 13.612 78.4452 14.4405 78.4513 15.4714C78.4452 16.4409 78.1568 17.2847 77.5861 18.0026C77.0216 18.7206 76.2484 19.279 75.2666 19.6778C74.2847 20.0706 73.1618 20.2669 71.8977 20.2669C69.8788 20.2669 68.2864 19.8527 67.1205 19.0243C65.9608 18.1898 65.298 17.073 65.1324 15.6739L69.5781 15.5634C69.6763 16.0789 69.931 16.4716 70.3421 16.7416C70.7533 17.0116 71.2779 17.1466 71.9161 17.1466C72.4929 17.1466 72.9624 17.0392 73.3244 16.8244C73.6864 16.6097 73.8705 16.3243 73.8767 15.9684C73.8705 15.6493 73.7294 15.3947 73.4533 15.2044C73.1771 15.0081 72.7445 14.8547 72.1554 14.7442L69.6886 14.2748C68.2711 14.017 67.2156 13.5415 66.5222 12.8481C65.8288 12.1485 65.4852 11.2587 65.4913 10.1787C65.4852 9.23375 65.7368 8.42682 66.2461 7.75795C66.7554 7.08295 67.4795 6.5675 68.4184 6.21159C69.3572 5.85568 70.4649 5.67773 71.7412 5.67773C73.6558 5.67773 75.1653 6.07966 76.2699 6.88352C77.3744 7.68125 77.985 8.77966 78.1016 10.1787ZM92.1638 20.2853C90.8383 20.2853 89.6939 20.0491 88.7305 19.5766C87.7732 19.1041 87.0369 18.469 86.5214 17.6712C86.006 16.8674 85.7482 15.9745 85.7482 14.9927C85.7482 14.2686 85.8894 13.6305 86.1716 13.0782C86.4601 12.5198 86.8558 12.0074 87.359 11.541C87.8683 11.0685 88.4605 10.6052 89.1355 10.1511L93.0935 7.61989C93.5414 7.33761 93.8574 7.04 94.0415 6.72705C94.2318 6.41409 94.3269 6.10114 94.3269 5.78818C94.3269 5.45068 94.1949 5.14386 93.9311 4.86773C93.6733 4.59159 93.2898 4.45659 92.7805 4.46273C92.4553 4.46273 92.173 4.53023 91.9337 4.66523C91.6944 4.80023 91.5072 4.98125 91.3722 5.2083C91.2433 5.43534 91.1789 5.69307 91.1789 5.98148C91.1789 6.3558 91.2863 6.73932 91.5011 7.13205C91.7158 7.52477 92.0043 7.94205 92.3663 8.38386C92.7345 8.82568 93.1426 9.31352 93.5905 9.84739L102.62 20H98.0363L90.4794 11.7987C90.0498 11.3201 89.5988 10.7832 89.1263 10.188C88.6538 9.59273 88.2549 8.94227 87.9297 8.23659C87.6045 7.52477 87.4419 6.75159 87.4419 5.91705C87.4419 4.97818 87.6628 4.1283 88.1046 3.36739C88.5464 2.60648 89.1662 2.00205 89.9639 1.55409C90.7678 1.1 91.7036 0.872953 92.7713 0.872953C93.8022 0.872953 94.692 1.08466 95.4406 1.50807C96.1893 1.93148 96.7661 2.49295 97.1711 3.1925C97.5761 3.89205 97.7786 4.65909 97.7786 5.49364C97.7786 6.37727 97.5607 7.19034 97.1251 7.93284C96.6894 8.6692 96.0727 9.32273 95.2749 9.89341L91.3998 12.664C90.9887 12.9585 90.6665 13.2745 90.4333 13.612C90.2002 13.9434 90.0836 14.3055 90.0836 14.6982C90.0836 15.1032 90.1787 15.456 90.3689 15.7567C90.5653 16.0574 90.8414 16.2936 91.1973 16.4655C91.5532 16.6373 91.9705 16.7232 92.4491 16.7232C93.0873 16.7232 93.7255 16.5728 94.3637 16.2722C95.0019 15.9653 95.5848 15.5358 96.1126 14.9835C96.6403 14.4251 97.0637 13.7655 97.3828 13.0045C97.7019 12.2375 97.8614 11.3968 97.8614 10.4825H101.488C101.488 11.6116 101.368 12.6609 101.129 13.6305C100.89 14.5939 100.531 15.4591 100.052 16.2261C99.5796 16.987 98.9936 17.6191 98.294 18.1223C98.0731 18.245 97.8583 18.3616 97.6497 18.472C97.4411 18.5825 97.2263 18.6991 97.0054 18.8218C96.2813 19.3434 95.4958 19.7177 94.649 19.9448C93.8083 20.1718 92.9799 20.2853 92.1638 20.2853ZM126.685 7.97886H122.083C122.022 7.50636 121.896 7.07989 121.706 6.69943C121.516 6.31898 121.264 5.99375 120.951 5.72375C120.638 5.45375 120.267 5.24818 119.837 5.10705C119.414 4.95977 118.944 4.88614 118.429 4.88614C117.515 4.88614 116.726 5.11011 116.063 5.55807C115.407 6.00602 114.901 6.65341 114.545 7.50023C114.195 8.34704 114.02 9.37182 114.02 10.5745C114.02 11.8264 114.198 12.8757 114.554 13.7225C114.916 14.5632 115.422 15.1983 116.073 15.6278C116.729 16.0512 117.505 16.263 118.401 16.263C118.905 16.263 119.362 16.1985 119.773 16.0697C120.19 15.9408 120.555 15.7536 120.868 15.5082C121.187 15.2566 121.448 14.9528 121.651 14.5969C121.859 14.2349 122.003 13.8268 122.083 13.3727L126.685 13.4003C126.606 14.2349 126.363 15.0572 125.958 15.8672C125.559 16.6772 125.01 17.4166 124.311 18.0855C123.611 18.7482 122.758 19.2759 121.752 19.6686C120.752 20.0614 119.604 20.2577 118.309 20.2577C116.603 20.2577 115.075 19.8834 113.725 19.1348C112.382 18.38 111.32 17.2816 110.541 15.8395C109.761 14.3975 109.372 12.6425 109.372 10.5745C109.372 8.50045 109.767 6.74239 110.559 5.30034C111.351 3.8583 112.421 2.76295 113.771 2.01432C115.121 1.26568 116.634 0.891363 118.309 0.891363C119.451 0.891363 120.506 1.05091 121.476 1.37C122.445 1.68295 123.298 2.14318 124.035 2.75068C124.771 3.35205 125.369 4.09148 125.829 4.96898C126.29 5.84648 126.575 6.84977 126.685 7.97886ZM133.278 20.2393C132.376 20.2393 131.575 20.089 130.876 19.7883C130.182 19.4815 129.633 19.0212 129.228 18.4076C128.829 17.7878 128.63 17.0116 128.63 16.0789C128.63 15.2934 128.768 14.6307 129.044 14.0907C129.32 13.5507 129.701 13.1119 130.185 12.7744C130.67 12.4369 131.229 12.1823 131.861 12.0105C132.493 11.8325 133.168 11.7128 133.886 11.6515C134.69 11.5778 135.337 11.5011 135.828 11.4214C136.319 11.3355 136.675 11.2158 136.896 11.0624C137.123 10.9028 137.236 10.6789 137.236 10.3905V10.3444C137.236 9.87193 137.074 9.50682 136.748 9.24909C136.423 8.99136 135.984 8.8625 135.432 8.8625C134.837 8.8625 134.358 8.99136 133.996 9.24909C133.634 9.50682 133.404 9.86273 133.306 10.3168L129.155 10.1695C129.277 9.31045 129.593 8.54341 130.103 7.86841C130.618 7.18727 131.324 6.65341 132.22 6.26682C133.122 5.87409 134.205 5.67773 135.469 5.67773C136.371 5.67773 137.202 5.78511 137.963 5.99989C138.724 6.20852 139.387 6.51534 139.952 6.92034C140.516 7.3192 140.952 7.81011 141.259 8.39307C141.572 8.97602 141.728 9.64182 141.728 10.3905V20H137.494V18.0302H137.383C137.132 18.5089 136.81 18.9139 136.417 19.2452C136.03 19.5766 135.573 19.8251 135.045 19.9908C134.524 20.1565 133.935 20.2393 133.278 20.2393ZM134.668 17.2939C135.153 17.2939 135.589 17.1957 135.975 16.9993C136.368 16.803 136.681 16.533 136.914 16.1893C137.147 15.8395 137.264 15.4345 137.264 14.9743V13.6305C137.135 13.698 136.978 13.7593 136.794 13.8145C136.616 13.8698 136.42 13.9219 136.205 13.971C135.99 14.0201 135.77 14.0631 135.543 14.0999C135.315 14.1367 135.098 14.1705 134.889 14.2011C134.466 14.2686 134.104 14.373 133.803 14.5141C133.508 14.6552 133.281 14.8393 133.122 15.0664C132.968 15.2873 132.892 15.5511 132.892 15.858C132.892 16.3243 133.057 16.6802 133.389 16.9257C133.726 17.1711 134.153 17.2939 134.668 17.2939ZM144.48 25.3018V5.86182H148.935V8.28261H149.073C149.257 7.85307 149.518 7.43886 149.856 7.04C150.199 6.64114 150.635 6.31591 151.163 6.06432C151.697 5.80659 152.335 5.67773 153.077 5.67773C154.059 5.67773 154.976 5.93545 155.829 6.45091C156.688 6.96636 157.382 7.76102 157.91 8.83489C158.437 9.90875 158.701 11.2772 158.701 12.9401C158.701 14.5417 158.447 15.8825 157.937 16.9625C157.434 18.0425 156.753 18.8525 155.894 19.3925C155.041 19.9325 154.093 20.2025 153.05 20.2025C152.338 20.2025 151.721 20.0859 151.199 19.8527C150.678 19.6195 150.239 19.3127 149.883 18.9323C149.533 18.5518 149.263 18.1437 149.073 17.7081H148.981V25.3018H144.48ZM148.889 12.9309C148.889 13.6918 148.99 14.3545 149.193 14.9191C149.402 15.4836 149.699 15.9224 150.086 16.2353C150.478 16.5422 150.948 16.6956 151.494 16.6956C152.046 16.6956 152.516 16.5422 152.902 16.2353C153.289 15.9224 153.58 15.4836 153.777 14.9191C153.979 14.3545 154.08 13.6918 154.08 12.9309C154.08 12.17 153.979 11.5103 153.777 10.9519C153.58 10.3935 153.289 9.96091 152.902 9.65409C152.522 9.34727 152.052 9.19386 151.494 9.19386C150.942 9.19386 150.472 9.3442 150.086 9.64489C149.699 9.94557 149.402 10.3751 149.193 10.9335C148.99 11.4919 148.889 12.1577 148.889 12.9309ZM167.659 20.2669C166.168 20.2669 164.889 19.9601 163.821 19.3465C162.76 18.7328 161.943 17.8799 161.373 16.7876C160.802 15.6892 160.517 14.419 160.517 12.9769C160.517 11.5287 160.802 10.2585 161.373 9.16625C161.95 8.06784 162.769 7.21182 163.83 6.59818C164.898 5.98455 166.171 5.67773 167.65 5.67773C168.957 5.67773 170.096 5.91398 171.065 6.38648C172.041 6.85898 172.802 7.52784 173.348 8.39307C173.9 9.25216 174.192 10.2616 174.222 11.4214H170.016C169.93 10.6973 169.684 10.1297 169.279 9.71852C168.881 9.30739 168.359 9.10182 167.715 9.10182C167.193 9.10182 166.736 9.24909 166.343 9.54364C165.951 9.83205 165.644 10.2616 165.423 10.8323C165.208 11.3968 165.101 12.0964 165.101 12.9309C165.101 13.7655 165.208 14.4711 165.423 15.048C165.644 15.6186 165.951 16.0512 166.343 16.3458C166.736 16.6342 167.193 16.7784 167.715 16.7784C168.132 16.7784 168.5 16.6894 168.819 16.5115C169.144 16.3335 169.411 16.0727 169.62 15.7291C169.829 15.3793 169.961 14.9559 170.016 14.4589H174.222C174.179 15.6248 173.888 16.6434 173.348 17.5148C172.814 18.3861 172.062 19.0642 171.093 19.549C170.129 20.0276 168.985 20.2669 167.659 20.2669ZM180.511 20.2393C179.609 20.2393 178.808 20.089 178.109 19.7883C177.416 19.4815 176.866 19.0212 176.461 18.4076C176.062 17.7878 175.863 17.0116 175.863 16.0789C175.863 15.2934 176.001 14.6307 176.277 14.0907C176.553 13.5507 176.934 13.1119 177.419 12.7744C177.903 12.4369 178.462 12.1823 179.094 12.0105C179.726 11.8325 180.401 11.7128 181.119 11.6515C181.923 11.5778 182.57 11.5011 183.061 11.4214C183.552 11.3355 183.908 11.2158 184.129 11.0624C184.356 10.9028 184.469 10.6789 184.469 10.3905V10.3444C184.469 9.87193 184.307 9.50682 183.981 9.24909C183.656 8.99136 183.217 8.8625 182.665 8.8625C182.07 8.8625 181.591 8.99136 181.229 9.24909C180.867 9.50682 180.637 9.86273 180.539 10.3168L176.388 10.1695C176.51 9.31045 176.826 8.54341 177.336 7.86841C177.851 7.18727 178.557 6.65341 179.453 6.26682C180.355 5.87409 181.438 5.67773 182.702 5.67773C183.604 5.67773 184.436 5.78511 185.196 5.99989C185.957 6.20852 186.62 6.51534 187.185 6.92034C187.749 7.3192 188.185 7.81011 188.492 8.39307C188.805 8.97602 188.961 9.64182 188.961 10.3905V20H184.727V18.0302H184.617C184.365 18.5089 184.043 18.9139 183.65 19.2452C183.263 19.5766 182.806 19.8251 182.279 19.9908C181.757 20.1565 181.168 20.2393 180.511 20.2393ZM181.901 17.2939C182.386 17.2939 182.822 17.1957 183.208 16.9993C183.601 16.803 183.914 16.533 184.147 16.1893C184.38 15.8395 184.497 15.4345 184.497 14.9743V13.6305C184.368 13.698 184.212 13.7593 184.027 13.8145C183.85 13.8698 183.653 13.9219 183.438 13.971C183.224 14.0201 183.003 14.0631 182.776 14.0999C182.549 14.1367 182.331 14.1705 182.122 14.2011C181.699 14.2686 181.337 14.373 181.036 14.5141C180.741 14.6552 180.514 14.8393 180.355 15.0664C180.201 15.2873 180.125 15.5511 180.125 15.858C180.125 16.3243 180.29 16.6802 180.622 16.9257C180.959 17.1711 181.386 17.2939 181.901 17.2939ZM195.772 16.2906L195.791 10.9243H196.417L200.393 5.86182H205.492L199.583 13.115H198.396L195.772 16.2906ZM191.713 20V1.14909H196.214V20H191.713ZM200.494 20L196.794 14.1275L199.758 10.9335L205.695 20H200.494ZM213.13 20.2669C211.651 20.2669 210.375 19.9755 209.301 19.3925C208.233 18.8034 207.411 17.9658 206.834 16.8797C206.263 15.7874 205.978 14.4895 205.978 12.9861C205.978 11.5257 206.266 10.2493 206.843 9.15705C207.42 8.05864 208.233 7.20568 209.282 6.59818C210.332 5.98455 211.568 5.67773 212.992 5.67773C213.998 5.67773 214.919 5.8342 215.753 6.14716C216.588 6.46011 217.309 6.92341 217.916 7.53705C218.524 8.15068 218.996 8.90852 219.334 9.81057C219.671 10.7065 219.84 11.7343 219.84 12.8941V14.017H207.552V11.403H215.652C215.646 10.9243 215.532 10.4978 215.311 10.1235C215.091 9.7492 214.787 9.45773 214.4 9.24909C214.02 9.03432 213.581 8.92693 213.084 8.92693C212.581 8.92693 212.13 9.04045 211.731 9.2675C211.332 9.48841 211.016 9.79216 210.783 10.1787C210.55 10.5592 210.427 10.9918 210.415 11.4766V14.1367C210.415 14.7135 210.528 15.2198 210.755 15.6555C210.982 16.085 211.304 16.4194 211.722 16.6587C212.139 16.8981 212.636 17.0177 213.213 17.0177C213.612 17.0177 213.974 16.9625 214.299 16.852C214.624 16.7416 214.903 16.579 215.137 16.3642C215.37 16.1494 215.545 15.8856 215.661 15.5726L219.794 15.6923C219.622 16.6189 219.245 17.4258 218.662 18.1131C218.085 18.7942 217.327 19.325 216.388 19.7055C215.449 20.0798 214.363 20.2669 213.13 20.2669ZM234.482 10.1787L230.349 10.2892C230.306 9.99466 230.19 9.73386 230 9.50682C229.809 9.27364 229.561 9.09261 229.254 8.96375C228.953 8.82875 228.604 8.76125 228.205 8.76125C227.683 8.76125 227.238 8.86557 226.87 9.0742C226.508 9.28284 226.33 9.56511 226.336 9.92102C226.33 10.1972 226.44 10.4365 226.668 10.639C226.901 10.8415 227.315 11.0041 227.91 11.1268L230.635 11.6423C232.046 11.9123 233.095 12.3602 233.783 12.9861C234.476 13.612 234.826 14.4405 234.832 15.4714C234.826 16.4409 234.537 17.2847 233.967 18.0026C233.402 18.7206 232.629 19.279 231.647 19.6778C230.665 20.0706 229.542 20.2669 228.278 20.2669C226.259 20.2669 224.667 19.8527 223.501 19.0243C222.341 18.1898 221.679 17.073 221.513 15.6739L225.959 15.5634C226.057 16.0789 226.312 16.4716 226.723 16.7416C227.134 17.0116 227.659 17.1466 228.297 17.1466C228.874 17.1466 229.343 17.0392 229.705 16.8244C230.067 16.6097 230.251 16.3243 230.257 15.9684C230.251 15.6493 230.11 15.3947 229.834 15.2044C229.558 15.0081 229.125 14.8547 228.536 14.7442L226.069 14.2748C224.652 14.017 223.596 13.5415 222.903 12.8481C222.209 12.1485 221.866 11.2587 221.872 10.1787C221.866 9.23375 222.117 8.42682 222.627 7.75795C223.136 7.08295 223.86 6.5675 224.799 6.21159C225.738 5.85568 226.845 5.67773 228.122 5.67773C230.036 5.67773 231.546 6.07966 232.65 6.88352C233.755 7.68125 234.366 8.77966 234.482 10.1787Z" fill="white"/>
</svg>
