<svg width="342" height="239" viewBox="0 0 342 239" fill="none" xmlns="http://www.w3.org/2000/svg">
<g filter="url(#filter0_bd_41_159)">
<rect x="312.102" y="16.9268" width="197.532" height="291.475" transform="rotate(90.1822 312.102 16.9268)" fill="#F2F2F2" fill-opacity="0.3" shape-rendering="crispEdges"/>
</g>
<path d="M41.3011 47.5455V65H38.6591V50.1875H38.5568L34.3807 52.9148V50.392L38.7358 47.5455H41.3011ZM46.728 65.1619C46.2621 65.1619 45.8615 64.9972 45.5263 64.6676C45.1911 64.3324 45.0234 63.929 45.0234 63.4574C45.0234 62.9915 45.1911 62.5937 45.5263 62.2642C45.8615 61.929 46.2621 61.7614 46.728 61.7614C47.1939 61.7614 47.5945 61.929 47.9297 62.2642C48.2649 62.5937 48.4325 62.9915 48.4325 63.4574C48.4325 63.7699 48.353 64.0568 48.1939 64.3182C48.0405 64.5739 47.8359 64.7784 47.5803 64.9318C47.3246 65.0852 47.0405 65.1619 46.728 65.1619ZM52.0504 65V47.5455H62.8743V49.8125H54.6839V55.1307H62.0987V57.3892H54.6839V65H52.0504ZM68.4567 47.5455V65H65.9084V47.5455H68.4567ZM77.3991 65.2642C76.1719 65.2642 75.1009 64.983 74.1861 64.4205C73.2713 63.858 72.5611 63.071 72.0554 62.0597C71.5497 61.0483 71.2969 59.8665 71.2969 58.5142C71.2969 57.1562 71.5497 55.9687 72.0554 54.9517C72.5611 53.9347 73.2713 53.1449 74.1861 52.5824C75.1009 52.0199 76.1719 51.7386 77.3991 51.7386C78.6264 51.7386 79.6974 52.0199 80.6122 52.5824C81.527 53.1449 82.2372 53.9347 82.7429 54.9517C83.2486 55.9687 83.5014 57.1562 83.5014 58.5142C83.5014 59.8665 83.2486 61.0483 82.7429 62.0597C82.2372 63.071 81.527 63.858 80.6122 64.4205C79.6974 64.983 78.6264 65.2642 77.3991 65.2642ZM77.4077 63.125C78.2031 63.125 78.8622 62.9148 79.3849 62.4943C79.9077 62.0739 80.294 61.5142 80.544 60.8153C80.7997 60.1165 80.9276 59.3466 80.9276 58.5057C80.9276 57.6705 80.7997 56.9034 80.544 56.2045C80.294 55.5 79.9077 54.9347 79.3849 54.5085C78.8622 54.0824 78.2031 53.8693 77.4077 53.8693C76.6065 53.8693 75.9418 54.0824 75.4134 54.5085C74.8906 54.9347 74.5014 55.5 74.2457 56.2045C73.9957 56.9034 73.8707 57.6705 73.8707 58.5057C73.8707 59.3466 73.9957 60.1165 74.2457 60.8153C74.5014 61.5142 74.8906 62.0739 75.4134 62.4943C75.9418 62.9148 76.6065 63.125 77.4077 63.125ZM94.6385 59.571V51.9091H97.1953V65H94.6896V62.733H94.5533C94.2521 63.4318 93.7692 64.0142 93.1044 64.4801C92.4453 64.9403 91.6243 65.1705 90.6413 65.1705C89.8004 65.1705 89.0561 64.9858 88.4084 64.6165C87.7663 64.2415 87.2607 63.6875 86.8913 62.9545C86.5277 62.2216 86.3459 61.3153 86.3459 60.2358V51.9091H88.8942V59.929C88.8942 60.821 89.1413 61.5312 89.6357 62.0597C90.13 62.5881 90.772 62.8523 91.5618 62.8523C92.0391 62.8523 92.5135 62.733 92.9851 62.4943C93.4624 62.2557 93.8572 61.8949 94.1697 61.4119C94.4879 60.929 94.6442 60.3153 94.6385 59.571ZM100.619 65V51.9091H103.082V53.9886H103.219C103.457 53.2841 103.878 52.7301 104.48 52.3267C105.088 51.9176 105.776 51.7131 106.543 51.7131C106.702 51.7131 106.889 51.7187 107.105 51.7301C107.327 51.7415 107.5 51.7557 107.625 51.7727V54.2102C107.523 54.1818 107.341 54.1506 107.08 54.1165C106.818 54.0767 106.557 54.0568 106.295 54.0568C105.693 54.0568 105.156 54.1847 104.685 54.4403C104.219 54.6903 103.849 55.0398 103.577 55.4886C103.304 55.9318 103.168 56.4375 103.168 57.0057V65H100.619ZM119.02 65L115.168 51.9091H117.801L120.366 61.5227H120.494L123.068 51.9091H125.702L128.259 61.4801H128.386L130.935 51.9091H133.568L129.724 65H127.125L124.466 55.5483H124.27L121.611 65H119.02ZM135.987 65V51.9091H138.535V65H135.987ZM137.273 49.8892C136.83 49.8892 136.45 49.7415 136.131 49.446C135.819 49.1449 135.663 48.7869 135.663 48.3722C135.663 47.9517 135.819 47.5937 136.131 47.2983C136.45 46.9972 136.83 46.8466 137.273 46.8466C137.717 46.8466 138.094 46.9972 138.407 47.2983C138.725 47.5937 138.884 47.9517 138.884 48.3722C138.884 48.7869 138.725 49.1449 138.407 49.446C138.094 49.7415 137.717 49.8892 137.273 49.8892ZM148.074 51.9091V53.9545H140.923V51.9091H148.074ZM142.841 48.7727H145.389V61.1562C145.389 61.6506 145.463 62.0227 145.611 62.2727C145.759 62.517 145.949 62.6847 146.182 62.7756C146.42 62.8608 146.679 62.9034 146.957 62.9034C147.162 62.9034 147.341 62.8892 147.494 62.8608C147.648 62.8324 147.767 62.8097 147.852 62.7926L148.312 64.8977C148.165 64.9545 147.955 65.0114 147.682 65.0682C147.409 65.1307 147.068 65.1648 146.659 65.1705C145.989 65.1818 145.364 65.0625 144.784 64.8125C144.205 64.5625 143.736 64.1761 143.378 63.6534C143.02 63.1307 142.841 62.4744 142.841 61.6847V48.7727ZM153.722 57.2273V65H151.174V47.5455H153.688V54.0398H153.85C154.157 53.3352 154.626 52.7756 155.256 52.3608C155.887 51.946 156.711 51.7386 157.728 51.7386C158.626 51.7386 159.41 51.9233 160.08 52.2926C160.756 52.6619 161.279 53.2131 161.648 53.946C162.023 54.6733 162.211 55.5824 162.211 56.6733V65H159.663V56.9801C159.663 56.0199 159.415 55.2756 158.921 54.7472C158.427 54.2131 157.739 53.946 156.859 53.946C156.256 53.946 155.717 54.0739 155.239 54.3295C154.768 54.5852 154.396 54.9602 154.123 55.4545C153.856 55.9432 153.722 56.5341 153.722 57.2273ZM178.193 51.9091V53.9545H170.795V51.9091H178.193ZM172.824 65V50.392C172.824 49.5739 173.003 48.8949 173.361 48.3551C173.719 47.8097 174.193 47.4034 174.784 47.1364C175.375 46.8636 176.017 46.7273 176.71 46.7273C177.222 46.7273 177.659 46.7699 178.023 46.8551C178.386 46.9347 178.656 47.0085 178.832 47.0767L178.236 49.1392C178.116 49.1051 177.963 49.0653 177.776 49.0199C177.588 48.9687 177.361 48.9432 177.094 48.9432C176.474 48.9432 176.031 49.0966 175.764 49.4034C175.503 49.7102 175.372 50.1534 175.372 50.733V65H172.824ZM180.822 65V51.9091H183.286V53.9886H183.422C183.661 53.2841 184.081 52.7301 184.683 52.3267C185.291 51.9176 185.979 51.7131 186.746 51.7131C186.905 51.7131 187.092 51.7187 187.308 51.7301C187.53 51.7415 187.703 51.7557 187.828 51.7727V54.2102C187.726 54.1818 187.544 54.1506 187.283 54.1165C187.021 54.0767 186.76 54.0568 186.499 54.0568C185.896 54.0568 185.359 54.1847 184.888 54.4403C184.422 54.6903 184.053 55.0398 183.78 55.4886C183.507 55.9318 183.371 56.4375 183.371 57.0057V65H180.822ZM195.207 65.2642C193.917 65.2642 192.806 64.9886 191.874 64.4375C190.948 63.8807 190.232 63.0994 189.727 62.0938C189.227 61.0824 188.977 59.8977 188.977 58.5398C188.977 57.1989 189.227 56.017 189.727 54.9943C190.232 53.9716 190.937 53.1733 191.84 52.5994C192.749 52.0256 193.812 51.7386 195.028 51.7386C195.766 51.7386 196.482 51.8608 197.175 52.1051C197.869 52.3494 198.491 52.733 199.042 53.2557C199.593 53.7784 200.028 54.4574 200.346 55.2926C200.664 56.1222 200.823 57.1307 200.823 58.3182V59.2216H190.417V57.3125H198.326C198.326 56.642 198.19 56.0483 197.917 55.5312C197.644 55.0085 197.261 54.5966 196.766 54.2955C196.278 53.9943 195.704 53.8438 195.045 53.8438C194.329 53.8438 193.704 54.0199 193.17 54.3722C192.641 54.7187 192.232 55.1733 191.942 55.7358C191.658 56.2926 191.516 56.8977 191.516 57.5511V59.0426C191.516 59.9176 191.67 60.6619 191.977 61.2756C192.289 61.8892 192.724 62.358 193.281 62.6818C193.837 63 194.488 63.1591 195.232 63.1591C195.715 63.1591 196.156 63.0909 196.553 62.9545C196.951 62.8125 197.295 62.6023 197.585 62.3239C197.874 62.0455 198.096 61.7017 198.249 61.2926L200.661 61.7273C200.468 62.4375 200.121 63.0597 199.621 63.5938C199.127 64.1222 198.505 64.5341 197.755 64.8295C197.011 65.1193 196.161 65.2642 195.207 65.2642ZM213.46 55.1051L211.151 55.5142C211.054 55.2187 210.901 54.9375 210.69 54.6705C210.486 54.4034 210.207 54.1847 209.855 54.0142C209.503 53.8437 209.063 53.7585 208.534 53.7585C207.813 53.7585 207.21 53.9205 206.727 54.2443C206.244 54.5625 206.003 54.9744 206.003 55.4801C206.003 55.9176 206.165 56.2699 206.489 56.5369C206.813 56.804 207.335 57.0227 208.057 57.1932L210.136 57.6705C211.341 57.9489 212.239 58.3778 212.83 58.9574C213.42 59.5369 213.716 60.2898 213.716 61.2159C213.716 62 213.489 62.6989 213.034 63.3125C212.585 63.9205 211.957 64.3977 211.151 64.7443C210.349 65.0909 209.42 65.2642 208.364 65.2642C206.898 65.2642 205.702 64.9517 204.776 64.3267C203.849 63.696 203.281 62.8011 203.071 61.642L205.534 61.267C205.688 61.9091 206.003 62.3949 206.48 62.7244C206.957 63.0483 207.58 63.2102 208.347 63.2102C209.182 63.2102 209.849 63.0369 210.349 62.6903C210.849 62.3381 211.099 61.9091 211.099 61.4034C211.099 60.9943 210.946 60.6506 210.639 60.3722C210.338 60.0937 209.875 59.8835 209.25 59.7415L207.034 59.2557C205.813 58.9773 204.909 58.5341 204.324 57.9261C203.744 57.3182 203.455 56.5483 203.455 55.6165C203.455 54.8437 203.67 54.1676 204.102 53.5881C204.534 53.0085 205.131 52.5568 205.892 52.233C206.653 51.9034 207.526 51.7386 208.509 51.7386C209.923 51.7386 211.037 52.0455 211.849 52.6591C212.662 53.267 213.199 54.0824 213.46 55.1051ZM219.066 57.2273V65H216.518V47.5455H219.032V54.0398H219.194C219.501 53.3352 219.969 52.7756 220.6 52.3608C221.231 51.946 222.055 51.7386 223.072 51.7386C223.969 51.7386 224.754 51.9233 225.424 52.2926C226.1 52.6619 226.623 53.2131 226.992 53.946C227.367 54.6733 227.555 55.5824 227.555 56.6733V65H225.006V56.9801C225.006 56.0199 224.759 55.2756 224.265 54.7472C223.771 54.2131 223.083 53.946 222.202 53.946C221.6 53.946 221.06 54.0739 220.583 54.3295C220.112 54.5852 219.739 54.9602 219.467 55.4545C219.2 55.9432 219.066 56.5341 219.066 57.2273ZM240.145 65L236.293 51.9091H238.926L241.491 61.5227H241.619L244.193 51.9091H246.827L249.384 61.4801H249.511L252.06 51.9091H254.693L250.849 65H248.25L245.591 55.5483H245.395L242.736 65H240.145ZM259.66 57.2273V65H257.112V47.5455H259.626V54.0398H259.788C260.094 53.3352 260.563 52.7756 261.194 52.3608C261.825 51.946 262.648 51.7386 263.665 51.7386C264.563 51.7386 265.347 51.9233 266.018 52.2926C266.694 52.6619 267.217 53.2131 267.586 53.946C267.961 54.6733 268.148 55.5824 268.148 56.6733V65H265.6V56.9801C265.6 56.0199 265.353 55.2756 264.859 54.7472C264.364 54.2131 263.677 53.946 262.796 53.946C262.194 53.946 261.654 54.0739 261.177 54.3295C260.705 54.5852 260.333 54.9602 260.06 55.4545C259.793 55.9432 259.66 56.5341 259.66 57.2273ZM277.191 65.2642C275.901 65.2642 274.79 64.9886 273.859 64.4375C272.933 63.8807 272.217 63.0994 271.711 62.0938C271.211 61.0824 270.961 59.8977 270.961 58.5398C270.961 57.1989 271.211 56.017 271.711 54.9943C272.217 53.9716 272.921 53.1733 273.825 52.5994C274.734 52.0256 275.796 51.7386 277.012 51.7386C277.751 51.7386 278.467 51.8608 279.16 52.1051C279.853 52.3494 280.475 52.733 281.026 53.2557C281.577 53.7784 282.012 54.4574 282.33 55.2926C282.648 56.1222 282.808 57.1307 282.808 58.3182V59.2216H272.401V57.3125H280.31C280.31 56.642 280.174 56.0483 279.901 55.5312C279.629 55.0085 279.245 54.5966 278.751 54.2955C278.262 53.9943 277.688 53.8438 277.029 53.8438C276.313 53.8438 275.688 54.0199 275.154 54.3722C274.626 54.7187 274.217 55.1733 273.927 55.7358C273.643 56.2926 273.501 56.8977 273.501 57.5511V59.0426C273.501 59.9176 273.654 60.6619 273.961 61.2756C274.273 61.8892 274.708 62.358 275.265 62.6818C275.822 63 276.472 63.1591 277.217 63.1591C277.7 63.1591 278.14 63.0909 278.538 62.9545C278.935 62.8125 279.279 62.6023 279.569 62.3239C279.859 62.0455 280.08 61.7017 280.234 61.2926L282.646 61.7273C282.452 62.4375 282.106 63.0597 281.606 63.5938C281.112 64.1222 280.489 64.5341 279.739 64.8295C278.995 65.1193 278.146 65.2642 277.191 65.2642ZM289.445 65.2898C288.615 65.2898 287.865 65.1364 287.195 64.8295C286.524 64.517 285.993 64.0653 285.601 63.4744C285.214 62.8835 285.021 62.1591 285.021 61.3011C285.021 60.5625 285.163 59.9545 285.447 59.4773C285.732 59 286.115 58.6222 286.598 58.3438C287.081 58.0653 287.621 57.8551 288.217 57.7131C288.814 57.571 289.422 57.4631 290.041 57.3892C290.825 57.2983 291.462 57.2244 291.95 57.1676C292.439 57.1051 292.794 57.0057 293.016 56.8693C293.237 56.733 293.348 56.5114 293.348 56.2045V56.1449C293.348 55.4006 293.138 54.8239 292.717 54.4148C292.303 54.0057 291.683 53.8011 290.859 53.8011C290.001 53.8011 289.325 53.9915 288.831 54.3722C288.342 54.7472 288.004 55.1648 287.817 55.625L285.422 55.0795C285.706 54.2841 286.121 53.642 286.666 53.1534C287.217 52.6591 287.851 52.3011 288.567 52.0795C289.283 51.8523 290.036 51.7386 290.825 51.7386C291.348 51.7386 291.902 51.8011 292.487 51.9261C293.078 52.0455 293.629 52.267 294.141 52.5909C294.658 52.9148 295.081 53.3778 295.411 53.9801C295.74 54.5767 295.905 55.3523 295.905 56.3068V65H293.416V63.2102H293.314C293.149 63.5398 292.902 63.8636 292.572 64.1818C292.243 64.5 291.82 64.7642 291.303 64.9744C290.786 65.1847 290.166 65.2898 289.445 65.2898ZM289.999 63.2443C290.703 63.2443 291.305 63.1051 291.805 62.8267C292.311 62.5483 292.695 62.1847 292.956 61.7358C293.223 61.2812 293.357 60.7955 293.357 60.2784V58.5909C293.266 58.6818 293.089 58.767 292.828 58.8466C292.572 58.9205 292.28 58.9858 291.95 59.0426C291.621 59.0937 291.3 59.142 290.987 59.1875C290.675 59.2273 290.413 59.2614 290.203 59.2898C289.709 59.3523 289.257 59.4574 288.848 59.6051C288.445 59.7528 288.121 59.9659 287.876 60.2443C287.638 60.517 287.518 60.8807 287.518 61.3352C287.518 61.9659 287.751 62.4432 288.217 62.767C288.683 63.0852 289.277 63.2443 289.999 63.2443ZM305.41 51.9091V53.9545H298.259V51.9091H305.41ZM300.177 48.7727H302.725V61.1562C302.725 61.6506 302.799 62.0227 302.947 62.2727C303.094 62.517 303.285 62.6847 303.518 62.7756C303.756 62.8608 304.015 62.9034 304.293 62.9034C304.498 62.9034 304.677 62.8892 304.83 62.8608C304.984 62.8324 305.103 62.8097 305.188 62.7926L305.648 64.8977C305.501 64.9545 305.29 65.0114 305.018 65.0682C304.745 65.1307 304.404 65.1648 303.995 65.1705C303.325 65.1818 302.7 65.0625 302.12 64.8125C301.54 64.5625 301.072 64.1761 300.714 63.6534C300.356 63.1307 300.177 62.4744 300.177 61.6847V48.7727ZM34.679 94V92.0909L40.5852 85.9716C41.2159 85.3068 41.7358 84.7244 42.1449 84.2244C42.5597 83.7187 42.8693 83.2386 43.0739 82.7841C43.2784 82.3295 43.3807 81.8466 43.3807 81.3352C43.3807 80.7557 43.2443 80.2557 42.9716 79.8352C42.6989 79.4091 42.3267 79.0824 41.8551 78.8551C41.3835 78.6222 40.8523 78.5057 40.2614 78.5057C39.6364 78.5057 39.0909 78.6335 38.625 78.8892C38.1591 79.1449 37.8011 79.5057 37.5511 79.9716C37.3011 80.4375 37.1761 80.983 37.1761 81.608H34.6619C34.6619 80.5455 34.9063 79.6165 35.3949 78.821C35.8835 78.0256 36.554 77.4091 37.4062 76.9716C38.2585 76.5284 39.2273 76.3068 40.3125 76.3068C41.4091 76.3068 42.375 76.5256 43.2102 76.9631C44.0511 77.3949 44.7074 77.9858 45.179 78.7358C45.6506 79.4801 45.8864 80.321 45.8864 81.2585C45.8864 81.9062 45.7642 82.5398 45.5199 83.1591C45.2813 83.7784 44.8636 84.4687 44.267 85.2301C43.6705 85.9858 42.8409 86.9034 41.7784 87.983L38.3097 91.6136V91.7415H46.1676V94H34.679ZM51.1108 94.1619C50.6449 94.1619 50.2443 93.9972 49.9091 93.6676C49.5739 93.3324 49.4062 92.929 49.4062 92.4574C49.4062 91.9915 49.5739 91.5937 49.9091 91.2642C50.2443 90.929 50.6449 90.7614 51.1108 90.7614C51.5767 90.7614 51.9773 90.929 52.3125 91.2642C52.6477 91.5937 52.8153 91.9915 52.8153 92.4574C52.8153 92.7699 52.7358 93.0568 52.5767 93.3182C52.4233 93.5739 52.2188 93.7784 51.9631 93.9318C51.7074 94.0852 51.4233 94.1619 51.1108 94.1619ZM70.5213 76.5455V94H68.1009L59.2287 81.1989H59.0668V94H56.4332V76.5455H58.8707L67.7514 89.3636H67.9134V76.5455H70.5213ZM79.8004 94.2642C78.5107 94.2642 77.3999 93.9886 76.468 93.4375C75.5419 92.8807 74.826 92.0994 74.3203 91.0938C73.8203 90.0824 73.5703 88.8977 73.5703 87.5398C73.5703 86.1989 73.8203 85.017 74.3203 83.9943C74.826 82.9716 75.5305 82.1733 76.4339 81.5994C77.343 81.0256 78.4055 80.7386 79.6214 80.7386C80.3601 80.7386 81.076 80.8608 81.7692 81.1051C82.4624 81.3494 83.0845 81.733 83.6357 82.2557C84.1868 82.7784 84.6214 83.4574 84.9396 84.2926C85.2578 85.1222 85.4169 86.1307 85.4169 87.3182V88.2216H75.0107V86.3125H82.9197C82.9197 85.642 82.7834 85.0483 82.5107 84.5312C82.2379 84.0085 81.8544 83.5966 81.3601 83.2955C80.8714 82.9943 80.2976 82.8438 79.6385 82.8438C78.9226 82.8438 78.2976 83.0199 77.7635 83.3722C77.2351 83.7187 76.826 84.1733 76.5362 84.7358C76.2521 85.2926 76.1101 85.8977 76.1101 86.5511V88.0426C76.1101 88.9176 76.2635 89.6619 76.5703 90.2756C76.8828 90.8892 77.3175 91.358 77.8743 91.6818C78.4311 92 79.0817 92.1591 79.826 92.1591C80.3089 92.1591 80.7493 92.0909 81.147 91.9545C81.5447 91.8125 81.8885 91.6023 82.1783 91.3239C82.468 91.0455 82.6896 90.7017 82.843 90.2926L85.255 90.7273C85.0618 91.4375 84.7152 92.0597 84.2152 92.5938C83.7209 93.1222 83.0987 93.5341 82.3487 93.8295C81.6044 94.1193 80.755 94.2642 79.8004 94.2642ZM91.0589 94L87.2067 80.9091H89.8402L92.4055 90.5227H92.5334L95.1072 80.9091H97.7408L100.298 90.4801H100.425L102.974 80.9091H105.607L101.763 94H99.1641L96.505 84.5483H96.3089L93.6499 94H91.0589ZM119.278 94.2557C118.221 94.2557 117.278 93.9858 116.448 93.446C115.624 92.9006 114.977 92.125 114.505 91.1193C114.039 90.108 113.806 88.8949 113.806 87.4801C113.806 86.0653 114.042 84.8551 114.513 83.8494C114.991 82.8437 115.644 82.0739 116.474 81.5398C117.303 81.0057 118.244 80.7386 119.295 80.7386C120.107 80.7386 120.761 80.875 121.255 81.1477C121.755 81.4148 122.141 81.7273 122.414 82.0852C122.692 82.4432 122.908 82.7585 123.062 83.0312H123.215V76.5455H125.763V94H123.275V91.9631H123.062C122.908 92.2415 122.687 92.5597 122.397 92.9176C122.113 93.2756 121.721 93.5881 121.221 93.8551C120.721 94.1222 120.073 94.2557 119.278 94.2557ZM119.84 92.0824C120.573 92.0824 121.192 91.8892 121.698 91.5028C122.21 91.1108 122.596 90.5682 122.857 89.875C123.124 89.1818 123.258 88.375 123.258 87.4545C123.258 86.5455 123.127 85.75 122.866 85.0682C122.604 84.3864 122.221 83.8551 121.715 83.4744C121.21 83.0937 120.585 82.9034 119.84 82.9034C119.073 82.9034 118.434 83.1023 117.923 83.5C117.411 83.8977 117.025 84.4403 116.763 85.1278C116.508 85.8153 116.38 86.5909 116.38 87.4545C116.38 88.3295 116.511 89.1165 116.772 89.8153C117.033 90.5142 117.42 91.0682 117.931 91.4773C118.448 91.8807 119.085 92.0824 119.84 92.0824ZM129.401 94V80.9091H131.864V82.9886H132C132.239 82.2841 132.659 81.7301 133.261 81.3267C133.869 80.9176 134.557 80.7131 135.324 80.7131C135.483 80.7131 135.67 80.7187 135.886 80.7301C136.108 80.7415 136.281 80.7557 136.406 80.7727V83.2102C136.304 83.1818 136.122 83.1506 135.861 83.1165C135.599 83.0767 135.338 83.0568 135.077 83.0568C134.474 83.0568 133.938 83.1847 133.466 83.4403C133 83.6903 132.631 84.0398 132.358 84.4886C132.085 84.9318 131.949 85.4375 131.949 86.0057V94H129.401ZM143.657 94.2642C142.43 94.2642 141.359 93.983 140.444 93.4205C139.529 92.858 138.819 92.071 138.313 91.0597C137.808 90.0483 137.555 88.8665 137.555 87.5142C137.555 86.1562 137.808 84.9687 138.313 83.9517C138.819 82.9347 139.529 82.1449 140.444 81.5824C141.359 81.0199 142.43 80.7386 143.657 80.7386C144.884 80.7386 145.955 81.0199 146.87 81.5824C147.785 82.1449 148.495 82.9347 149.001 83.9517C149.506 84.9687 149.759 86.1562 149.759 87.5142C149.759 88.8665 149.506 90.0483 149.001 91.0597C148.495 92.071 147.785 92.858 146.87 93.4205C145.955 93.983 144.884 94.2642 143.657 94.2642ZM143.665 92.125C144.461 92.125 145.12 91.9148 145.643 91.4943C146.165 91.0739 146.552 90.5142 146.802 89.8153C147.058 89.1165 147.185 88.3466 147.185 87.5057C147.185 86.6705 147.058 85.9034 146.802 85.2045C146.552 84.5 146.165 83.9347 145.643 83.5085C145.12 83.0824 144.461 82.8693 143.665 82.8693C142.864 82.8693 142.2 83.0824 141.671 83.5085C141.148 83.9347 140.759 84.5 140.504 85.2045C140.254 85.9034 140.129 86.6705 140.129 87.5057C140.129 88.3466 140.254 89.1165 140.504 89.8153C140.759 90.5142 141.148 91.0739 141.671 91.4943C142.2 91.9148 142.864 92.125 143.665 92.125ZM152.331 94V92.2528L159.422 83.2443V83.125H152.561V80.9091H162.601V82.767L155.783 91.6648V91.7841H162.839V94H152.331ZM165.573 94V92.2528L172.664 83.2443V83.125H165.803V80.9091H175.843V82.767L169.025 91.6648V91.7841H176.082V94H165.573ZM181.636 86.2273V94H179.088V76.5455H181.602V83.0398H181.764C182.071 82.3352 182.54 81.7756 183.17 81.3608C183.801 80.946 184.625 80.7386 185.642 80.7386C186.54 80.7386 187.324 80.9233 187.994 81.2926C188.67 81.6619 189.193 82.2131 189.562 82.946C189.938 83.6733 190.125 84.5824 190.125 85.6733V94H187.577V85.9801C187.577 85.0199 187.33 84.2756 186.835 83.7472C186.341 83.2131 185.653 82.946 184.773 82.946C184.17 82.946 183.631 83.0739 183.153 83.3295C182.682 83.5852 182.31 83.9602 182.037 84.4545C181.77 84.9432 181.636 85.5341 181.636 86.2273ZM193.526 94V80.9091H196.074V94H193.526ZM194.812 78.8892C194.369 78.8892 193.989 78.7415 193.67 78.446C193.358 78.1449 193.202 77.7869 193.202 77.3722C193.202 76.9517 193.358 76.5937 193.67 76.2983C193.989 75.9972 194.369 75.8466 194.812 75.8466C195.256 75.8466 195.634 75.9972 195.946 76.2983C196.264 76.5937 196.423 76.9517 196.423 77.3722C196.423 77.7869 196.264 78.1449 195.946 78.446C195.634 78.7415 195.256 78.8892 194.812 78.8892ZM40.7557 123.239C39.5852 123.239 38.5398 123.037 37.6193 122.634C36.7045 122.23 35.9801 121.67 35.446 120.955C34.9176 120.233 34.6335 119.398 34.5938 118.449H37.2699C37.304 118.966 37.4773 119.415 37.7898 119.795C38.108 120.17 38.5227 120.46 39.0341 120.665C39.5455 120.869 40.1136 120.972 40.7386 120.972C41.4261 120.972 42.0341 120.852 42.5625 120.614C43.0966 120.375 43.5142 120.043 43.8153 119.616C44.1165 119.185 44.267 118.688 44.267 118.125C44.267 117.54 44.1165 117.026 43.8153 116.582C43.5199 116.134 43.0852 115.781 42.5114 115.526C41.9432 115.27 41.2557 115.142 40.4489 115.142H38.9744V112.994H40.4489C41.0966 112.994 41.6648 112.878 42.1534 112.645C42.6477 112.412 43.0341 112.088 43.3125 111.673C43.5909 111.253 43.7301 110.761 43.7301 110.199C43.7301 109.659 43.608 109.19 43.3636 108.793C43.125 108.389 42.7841 108.074 42.3409 107.847C41.9034 107.619 41.3864 107.506 40.7898 107.506C40.2216 107.506 39.6903 107.611 39.196 107.821C38.7074 108.026 38.3097 108.321 38.0028 108.707C37.696 109.088 37.5313 109.545 37.5085 110.08H34.9602C34.9886 109.136 35.267 108.307 35.7955 107.591C36.3295 106.875 37.0341 106.315 37.9091 105.912C38.7841 105.509 39.7557 105.307 40.8239 105.307C41.9432 105.307 42.9091 105.526 43.7216 105.963C44.5398 106.395 45.1705 106.972 45.6136 107.693C46.0625 108.415 46.2841 109.205 46.2784 110.062C46.2841 111.04 46.0114 111.869 45.4602 112.551C44.9148 113.233 44.1875 113.69 43.2784 113.923V114.06C44.4375 114.236 45.3352 114.696 45.9716 115.44C46.6136 116.185 46.9318 117.108 46.9261 118.21C46.9318 119.17 46.6648 120.031 46.125 120.793C45.5909 121.554 44.8608 122.153 43.9347 122.591C43.0085 123.023 41.9489 123.239 40.7557 123.239ZM51.3452 123.162C50.8793 123.162 50.4787 122.997 50.1435 122.668C49.8082 122.332 49.6406 121.929 49.6406 121.457C49.6406 120.991 49.8082 120.594 50.1435 120.264C50.4787 119.929 50.8793 119.761 51.3452 119.761C51.8111 119.761 52.2116 119.929 52.5469 120.264C52.8821 120.594 53.0497 120.991 53.0497 121.457C53.0497 121.77 52.9702 122.057 52.8111 122.318C52.6577 122.574 52.4531 122.778 52.1974 122.932C51.9418 123.085 51.6577 123.162 51.3452 123.162ZM56.6676 123V105.545H67.4915V107.812H59.3011V113.131H66.7159V115.389H59.3011V123H56.6676ZM70.3615 123V109.909H72.8246V111.989H72.9609C73.1996 111.284 73.62 110.73 74.2223 110.327C74.8303 109.918 75.5178 109.713 76.2848 109.713C76.4439 109.713 76.6314 109.719 76.8473 109.73C77.0689 109.741 77.2422 109.756 77.3672 109.773V112.21C77.2649 112.182 77.0831 112.151 76.8217 112.116C76.5604 112.077 76.299 112.057 76.0376 112.057C75.4354 112.057 74.8984 112.185 74.4268 112.44C73.9609 112.69 73.5916 113.04 73.3189 113.489C73.0462 113.932 72.9098 114.437 72.9098 115.006V123H70.3615ZM84.7457 123.264C83.456 123.264 82.3452 122.989 81.4134 122.438C80.4872 121.881 79.7713 121.099 79.2656 120.094C78.7656 119.082 78.5156 117.898 78.5156 116.54C78.5156 115.199 78.7656 114.017 79.2656 112.994C79.7713 111.972 80.4759 111.173 81.3793 110.599C82.2884 110.026 83.3509 109.739 84.5668 109.739C85.3054 109.739 86.0213 109.861 86.7145 110.105C87.4077 110.349 88.0298 110.733 88.581 111.256C89.1321 111.778 89.5668 112.457 89.8849 113.293C90.2031 114.122 90.3622 115.131 90.3622 116.318V117.222H79.956V115.312H87.8651C87.8651 114.642 87.7287 114.048 87.456 113.531C87.1832 113.009 86.7997 112.597 86.3054 112.295C85.8168 111.994 85.2429 111.844 84.5838 111.844C83.8679 111.844 83.2429 112.02 82.7088 112.372C82.1804 112.719 81.7713 113.173 81.4815 113.736C81.1974 114.293 81.0554 114.898 81.0554 115.551V117.043C81.0554 117.918 81.2088 118.662 81.5156 119.276C81.8281 119.889 82.2628 120.358 82.8196 120.682C83.3764 121 84.027 121.159 84.7713 121.159C85.2543 121.159 85.6946 121.091 86.0923 120.955C86.4901 120.812 86.8338 120.602 87.1236 120.324C87.4134 120.045 87.6349 119.702 87.7884 119.293L90.2003 119.727C90.0071 120.437 89.6605 121.06 89.1605 121.594C88.6662 122.122 88.044 122.534 87.294 122.83C86.5497 123.119 85.7003 123.264 84.7457 123.264ZM102.999 113.105L100.69 113.514C100.593 113.219 100.44 112.937 100.229 112.67C100.025 112.403 99.7464 112.185 99.3942 112.014C99.0419 111.844 98.6016 111.759 98.0732 111.759C97.3516 111.759 96.7493 111.92 96.2663 112.244C95.7834 112.562 95.5419 112.974 95.5419 113.48C95.5419 113.918 95.7038 114.27 96.0277 114.537C96.3516 114.804 96.8743 115.023 97.5959 115.193L99.6754 115.67C100.88 115.949 101.778 116.378 102.369 116.957C102.96 117.537 103.255 118.29 103.255 119.216C103.255 120 103.028 120.699 102.573 121.312C102.124 121.92 101.496 122.398 100.69 122.744C99.8885 123.091 98.9595 123.264 97.9027 123.264C96.4368 123.264 95.2408 122.952 94.3146 122.327C93.3885 121.696 92.8203 120.801 92.6101 119.642L95.0732 119.267C95.2266 119.909 95.5419 120.395 96.0192 120.724C96.4964 121.048 97.1186 121.21 97.8857 121.21C98.7209 121.21 99.3885 121.037 99.8885 120.69C100.388 120.338 100.638 119.909 100.638 119.403C100.638 118.994 100.485 118.651 100.178 118.372C99.8771 118.094 99.4141 117.884 98.7891 117.741L96.5732 117.256C95.3516 116.977 94.4482 116.534 93.8629 115.926C93.2834 115.318 92.9936 114.548 92.9936 113.616C92.9936 112.844 93.2095 112.168 93.6413 111.588C94.0732 111.009 94.6697 110.557 95.4311 110.233C96.1925 109.903 97.0646 109.739 98.0476 109.739C99.4624 109.739 100.576 110.045 101.388 110.659C102.201 111.267 102.738 112.082 102.999 113.105ZM108.605 115.227V123H106.057V105.545H108.571V112.04H108.733C109.04 111.335 109.509 110.776 110.139 110.361C110.77 109.946 111.594 109.739 112.611 109.739C113.509 109.739 114.293 109.923 114.963 110.293C115.639 110.662 116.162 111.213 116.531 111.946C116.906 112.673 117.094 113.582 117.094 114.673V123H114.545V114.98C114.545 114.02 114.298 113.276 113.804 112.747C113.31 112.213 112.622 111.946 111.741 111.946C111.139 111.946 110.599 112.074 110.122 112.33C109.651 112.585 109.278 112.96 109.006 113.455C108.739 113.943 108.605 114.534 108.605 115.227ZM132.488 123.264C131.198 123.264 130.087 122.989 129.156 122.438C128.229 121.881 127.513 121.099 127.008 120.094C126.508 119.082 126.258 117.898 126.258 116.54C126.258 115.199 126.508 114.017 127.008 112.994C127.513 111.972 128.218 111.173 129.121 110.599C130.031 110.026 131.093 109.739 132.309 109.739C133.048 109.739 133.763 109.861 134.457 110.105C135.15 110.349 135.772 110.733 136.323 111.256C136.874 111.778 137.309 112.457 137.627 113.293C137.945 114.122 138.104 115.131 138.104 116.318V117.222H127.698V115.312H135.607C135.607 114.642 135.471 114.048 135.198 113.531C134.925 113.009 134.542 112.597 134.048 112.295C133.559 111.994 132.985 111.844 132.326 111.844C131.61 111.844 130.985 112.02 130.451 112.372C129.923 112.719 129.513 113.173 129.224 113.736C128.94 114.293 128.798 114.898 128.798 115.551V117.043C128.798 117.918 128.951 118.662 129.258 119.276C129.57 119.889 130.005 120.358 130.562 120.682C131.119 121 131.769 121.159 132.513 121.159C132.996 121.159 133.437 121.091 133.835 120.955C134.232 120.812 134.576 120.602 134.866 120.324C135.156 120.045 135.377 119.702 135.531 119.293L137.942 119.727C137.749 120.437 137.403 121.06 136.903 121.594C136.408 122.122 135.786 122.534 135.036 122.83C134.292 123.119 133.442 123.264 132.488 123.264ZM146.42 128.182C145.381 128.182 144.486 128.045 143.736 127.773C142.991 127.5 142.384 127.139 141.912 126.69C141.44 126.241 141.088 125.75 140.855 125.216L143.045 124.312C143.199 124.562 143.403 124.827 143.659 125.105C143.92 125.389 144.273 125.631 144.716 125.83C145.165 126.028 145.741 126.128 146.446 126.128C147.412 126.128 148.21 125.892 148.841 125.42C149.472 124.955 149.787 124.21 149.787 123.188V120.614H149.625C149.472 120.892 149.25 121.202 148.96 121.543C148.676 121.884 148.284 122.179 147.784 122.429C147.284 122.679 146.634 122.804 145.832 122.804C144.798 122.804 143.866 122.562 143.037 122.08C142.213 121.591 141.56 120.872 141.077 119.923C140.599 118.969 140.361 117.795 140.361 116.403C140.361 115.011 140.597 113.818 141.068 112.824C141.545 111.83 142.199 111.068 143.028 110.54C143.858 110.006 144.798 109.739 145.849 109.739C146.662 109.739 147.318 109.875 147.818 110.148C148.318 110.415 148.707 110.727 148.986 111.085C149.27 111.443 149.489 111.759 149.642 112.031H149.83V109.909H152.327V123.29C152.327 124.415 152.065 125.338 151.543 126.06C151.02 126.781 150.313 127.315 149.42 127.662C148.534 128.009 147.534 128.182 146.42 128.182ZM146.395 120.69C147.128 120.69 147.747 120.52 148.253 120.179C148.764 119.832 149.151 119.338 149.412 118.696C149.679 118.048 149.812 117.273 149.812 116.369C149.812 115.489 149.682 114.713 149.42 114.043C149.159 113.372 148.776 112.849 148.27 112.474C147.764 112.094 147.139 111.903 146.395 111.903C145.628 111.903 144.989 112.102 144.477 112.5C143.966 112.892 143.58 113.426 143.318 114.102C143.063 114.778 142.935 115.534 142.935 116.369C142.935 117.227 143.065 117.98 143.327 118.628C143.588 119.276 143.974 119.781 144.486 120.145C145.003 120.509 145.639 120.69 146.395 120.69ZM161.233 128.182C160.193 128.182 159.298 128.045 158.548 127.773C157.804 127.5 157.196 127.139 156.724 126.69C156.253 126.241 155.901 125.75 155.668 125.216L157.858 124.312C158.011 124.562 158.216 124.827 158.472 125.105C158.733 125.389 159.085 125.631 159.528 125.83C159.977 126.028 160.554 126.128 161.259 126.128C162.224 126.128 163.023 125.892 163.653 125.42C164.284 124.955 164.599 124.21 164.599 123.188V120.614H164.438C164.284 120.892 164.063 121.202 163.773 121.543C163.489 121.884 163.097 122.179 162.597 122.429C162.097 122.679 161.446 122.804 160.645 122.804C159.611 122.804 158.679 122.562 157.849 122.08C157.026 121.591 156.372 120.872 155.889 119.923C155.412 118.969 155.173 117.795 155.173 116.403C155.173 115.011 155.409 113.818 155.881 112.824C156.358 111.83 157.011 111.068 157.841 110.54C158.67 110.006 159.611 109.739 160.662 109.739C161.474 109.739 162.131 109.875 162.631 110.148C163.131 110.415 163.52 110.727 163.798 111.085C164.082 111.443 164.301 111.759 164.455 112.031H164.642V109.909H167.139V123.29C167.139 124.415 166.878 125.338 166.355 126.06C165.832 126.781 165.125 127.315 164.233 127.662C163.347 128.009 162.347 128.182 161.233 128.182ZM161.207 120.69C161.94 120.69 162.56 120.52 163.065 120.179C163.577 119.832 163.963 119.338 164.224 118.696C164.491 118.048 164.625 117.273 164.625 116.369C164.625 115.489 164.494 114.713 164.233 114.043C163.972 113.372 163.588 112.849 163.082 112.474C162.577 112.094 161.952 111.903 161.207 111.903C160.44 111.903 159.801 112.102 159.29 112.5C158.778 112.892 158.392 113.426 158.131 114.102C157.875 114.778 157.747 115.534 157.747 116.369C157.747 117.227 157.878 117.98 158.139 118.628C158.401 119.276 158.787 119.781 159.298 120.145C159.815 120.509 160.452 120.69 161.207 120.69ZM180.366 113.105L178.057 113.514C177.96 113.219 177.807 112.937 177.597 112.67C177.392 112.403 177.114 112.185 176.761 112.014C176.409 111.844 175.969 111.759 175.44 111.759C174.719 111.759 174.116 111.92 173.634 112.244C173.151 112.562 172.909 112.974 172.909 113.48C172.909 113.918 173.071 114.27 173.395 114.537C173.719 114.804 174.241 115.023 174.963 115.193L177.043 115.67C178.247 115.949 179.145 116.378 179.736 116.957C180.327 117.537 180.622 118.29 180.622 119.216C180.622 120 180.395 120.699 179.94 121.312C179.491 121.92 178.864 122.398 178.057 122.744C177.256 123.091 176.327 123.264 175.27 123.264C173.804 123.264 172.608 122.952 171.682 122.327C170.756 121.696 170.188 120.801 169.977 119.642L172.44 119.267C172.594 119.909 172.909 120.395 173.386 120.724C173.864 121.048 174.486 121.21 175.253 121.21C176.088 121.21 176.756 121.037 177.256 120.69C177.756 120.338 178.006 119.909 178.006 119.403C178.006 118.994 177.852 118.651 177.545 118.372C177.244 118.094 176.781 117.884 176.156 117.741L173.94 117.256C172.719 116.977 171.815 116.534 171.23 115.926C170.651 115.318 170.361 114.548 170.361 113.616C170.361 112.844 170.577 112.168 171.009 111.588C171.44 111.009 172.037 110.557 172.798 110.233C173.56 109.903 174.432 109.739 175.415 109.739C176.83 109.739 177.943 110.045 178.756 110.659C179.568 111.267 180.105 112.082 180.366 113.105ZM34.3125 148.591V146.46L41.8551 134.545H43.5341V137.682H42.4688L37.0739 146.222V146.358H47.4119V148.591H34.3125ZM42.5881 152V147.943L42.6051 146.972V134.545H45.1023V152H42.5881ZM51.4389 152.162C50.973 152.162 50.5724 151.997 50.2372 151.668C49.902 151.332 49.7344 150.929 49.7344 150.457C49.7344 149.991 49.902 149.594 50.2372 149.264C50.5724 148.929 50.973 148.761 51.4389 148.761C51.9048 148.761 52.3054 148.929 52.6406 149.264C52.9759 149.594 53.1435 149.991 53.1435 150.457C53.1435 150.77 53.0639 151.057 52.9048 151.318C52.7514 151.574 52.5469 151.778 52.2912 151.932C52.0355 152.085 51.7514 152.162 51.4389 152.162ZM60.179 152L55.3381 134.545H58.108L61.5085 148.062H61.6705L65.2074 134.545H67.9517L71.4886 148.071H71.6506L75.0426 134.545H77.821L72.9716 152H70.321L66.6477 138.926H66.5114L62.8381 152H60.179ZM82.5384 152.29C81.7088 152.29 80.9588 152.136 80.2884 151.83C79.6179 151.517 79.0866 151.065 78.6946 150.474C78.3082 149.884 78.1151 149.159 78.1151 148.301C78.1151 147.562 78.2571 146.955 78.5412 146.477C78.8253 146 79.2088 145.622 79.6918 145.344C80.1747 145.065 80.7145 144.855 81.3111 144.713C81.9077 144.571 82.5156 144.463 83.1349 144.389C83.919 144.298 84.5554 144.224 85.044 144.168C85.5327 144.105 85.8878 144.006 86.1094 143.869C86.331 143.733 86.4418 143.511 86.4418 143.205V143.145C86.4418 142.401 86.2315 141.824 85.8111 141.415C85.3963 141.006 84.777 140.801 83.9531 140.801C83.0952 140.801 82.419 140.991 81.9247 141.372C81.4361 141.747 81.098 142.165 80.9105 142.625L78.5156 142.08C78.7997 141.284 79.2145 140.642 79.7599 140.153C80.3111 139.659 80.9446 139.301 81.6605 139.08C82.3764 138.852 83.1293 138.739 83.919 138.739C84.4418 138.739 84.9957 138.801 85.581 138.926C86.1719 139.045 86.723 139.267 87.2344 139.591C87.7514 139.915 88.1747 140.378 88.5043 140.98C88.8338 141.577 88.9986 142.352 88.9986 143.307V152H86.5099V150.21H86.4077C86.2429 150.54 85.9957 150.864 85.6662 151.182C85.3366 151.5 84.9134 151.764 84.3963 151.974C83.8793 152.185 83.2599 152.29 82.5384 152.29ZM83.0923 150.244C83.7969 150.244 84.3991 150.105 84.8991 149.827C85.4048 149.548 85.7884 149.185 86.0497 148.736C86.3168 148.281 86.4503 147.795 86.4503 147.278V145.591C86.3594 145.682 86.1832 145.767 85.9219 145.847C85.6662 145.92 85.3736 145.986 85.044 146.043C84.7145 146.094 84.3935 146.142 84.081 146.188C83.7685 146.227 83.5071 146.261 83.2969 146.29C82.8026 146.352 82.3509 146.457 81.9418 146.605C81.5384 146.753 81.2145 146.966 80.9702 147.244C80.7315 147.517 80.6122 147.881 80.6122 148.335C80.6122 148.966 80.8452 149.443 81.3111 149.767C81.777 150.085 82.3707 150.244 83.0923 150.244ZM98.5036 138.909V140.955H91.353V138.909H98.5036ZM93.2706 135.773H95.8189V148.156C95.8189 148.651 95.8928 149.023 96.0405 149.273C96.1882 149.517 96.3786 149.685 96.6115 149.776C96.8501 149.861 97.1087 149.903 97.3871 149.903C97.5916 149.903 97.7706 149.889 97.924 149.861C98.0774 149.832 98.1967 149.81 98.282 149.793L98.7422 151.898C98.5945 151.955 98.3842 152.011 98.1115 152.068C97.8388 152.131 97.4979 152.165 97.0888 152.17C96.4183 152.182 95.7933 152.062 95.2138 151.812C94.6342 151.562 94.1655 151.176 93.8075 150.653C93.4496 150.131 93.2706 149.474 93.2706 148.685V135.773ZM106.824 152.264C105.534 152.264 104.423 151.989 103.491 151.438C102.565 150.881 101.849 150.099 101.344 149.094C100.844 148.082 100.594 146.898 100.594 145.54C100.594 144.199 100.844 143.017 101.344 141.994C101.849 140.972 102.554 140.173 103.457 139.599C104.366 139.026 105.429 138.739 106.645 138.739C107.384 138.739 108.099 138.861 108.793 139.105C109.486 139.349 110.108 139.733 110.659 140.256C111.21 140.778 111.645 141.457 111.963 142.293C112.281 143.122 112.44 144.131 112.44 145.318V146.222H102.034V144.312H109.943C109.943 143.642 109.807 143.048 109.534 142.531C109.261 142.009 108.878 141.597 108.384 141.295C107.895 140.994 107.321 140.844 106.662 140.844C105.946 140.844 105.321 141.02 104.787 141.372C104.259 141.719 103.849 142.173 103.56 142.736C103.276 143.293 103.134 143.898 103.134 144.551V146.043C103.134 146.918 103.287 147.662 103.594 148.276C103.906 148.889 104.341 149.358 104.898 149.682C105.455 150 106.105 150.159 106.849 150.159C107.332 150.159 107.773 150.091 108.17 149.955C108.568 149.812 108.912 149.602 109.202 149.324C109.491 149.045 109.713 148.702 109.866 148.293L112.278 148.727C112.085 149.437 111.739 150.06 111.239 150.594C110.744 151.122 110.122 151.534 109.372 151.83C108.628 152.119 107.778 152.264 106.824 152.264ZM115.268 152V138.909H117.731V140.989H117.867C118.106 140.284 118.526 139.73 119.129 139.327C119.737 138.918 120.424 138.713 121.191 138.713C121.35 138.713 121.538 138.719 121.754 138.73C121.975 138.741 122.148 138.756 122.273 138.773V141.21C122.171 141.182 121.989 141.151 121.728 141.116C121.467 141.077 121.205 141.057 120.944 141.057C120.342 141.057 119.805 141.185 119.333 141.44C118.867 141.69 118.498 142.04 118.225 142.489C117.952 142.932 117.816 143.437 117.816 144.006V152H115.268ZM137.06 138.909V140.955H129.663V138.909H137.06ZM131.691 152V137.392C131.691 136.574 131.87 135.895 132.228 135.355C132.586 134.81 133.06 134.403 133.651 134.136C134.242 133.864 134.884 133.727 135.577 133.727C136.089 133.727 136.526 133.77 136.89 133.855C137.254 133.935 137.523 134.009 137.7 134.077L137.103 136.139C136.984 136.105 136.83 136.065 136.643 136.02C136.455 135.969 136.228 135.943 135.961 135.943C135.342 135.943 134.898 136.097 134.631 136.403C134.37 136.71 134.239 137.153 134.239 137.733V152H131.691ZM139.69 152V138.909H142.153V140.989H142.289C142.528 140.284 142.948 139.73 143.55 139.327C144.158 138.918 144.846 138.713 145.613 138.713C145.772 138.713 145.96 138.719 146.175 138.73C146.397 138.741 146.57 138.756 146.695 138.773V141.21C146.593 141.182 146.411 141.151 146.15 141.116C145.888 141.077 145.627 141.057 145.366 141.057C144.763 141.057 144.227 141.185 143.755 141.44C143.289 141.69 142.92 142.04 142.647 142.489C142.374 142.932 142.238 143.437 142.238 144.006V152H139.69ZM153.946 152.264C152.719 152.264 151.648 151.983 150.733 151.42C149.818 150.858 149.108 150.071 148.602 149.06C148.097 148.048 147.844 146.866 147.844 145.514C147.844 144.156 148.097 142.969 148.602 141.952C149.108 140.935 149.818 140.145 150.733 139.582C151.648 139.02 152.719 138.739 153.946 138.739C155.173 138.739 156.244 139.02 157.159 139.582C158.074 140.145 158.784 140.935 159.29 141.952C159.795 142.969 160.048 144.156 160.048 145.514C160.048 146.866 159.795 148.048 159.29 149.06C158.784 150.071 158.074 150.858 157.159 151.42C156.244 151.983 155.173 152.264 153.946 152.264ZM153.955 150.125C154.75 150.125 155.409 149.915 155.932 149.494C156.455 149.074 156.841 148.514 157.091 147.815C157.347 147.116 157.474 146.347 157.474 145.506C157.474 144.67 157.347 143.903 157.091 143.205C156.841 142.5 156.455 141.935 155.932 141.509C155.409 141.082 154.75 140.869 153.955 140.869C153.153 140.869 152.489 141.082 151.96 141.509C151.438 141.935 151.048 142.5 150.793 143.205C150.543 143.903 150.418 144.67 150.418 145.506C150.418 146.347 150.543 147.116 150.793 147.815C151.048 148.514 151.438 149.074 151.96 149.494C152.489 149.915 153.153 150.125 153.955 150.125ZM162.893 152V138.909H165.339V141.04H165.501C165.773 140.318 166.219 139.756 166.839 139.352C167.458 138.943 168.2 138.739 169.063 138.739C169.938 138.739 170.671 138.943 171.262 139.352C171.859 139.761 172.299 140.324 172.583 141.04H172.719C173.032 140.341 173.529 139.784 174.211 139.369C174.893 138.949 175.705 138.739 176.648 138.739C177.836 138.739 178.805 139.111 179.555 139.855C180.31 140.599 180.688 141.722 180.688 143.222V152H178.14V143.46C178.14 142.574 177.898 141.932 177.415 141.534C176.933 141.136 176.356 140.938 175.685 140.938C174.856 140.938 174.211 141.193 173.751 141.705C173.29 142.21 173.06 142.861 173.06 143.656V152H170.521V143.298C170.521 142.588 170.299 142.017 169.856 141.585C169.413 141.153 168.836 140.938 168.126 140.938C167.643 140.938 167.197 141.065 166.788 141.321C166.384 141.571 166.058 141.92 165.808 142.369C165.563 142.818 165.441 143.338 165.441 143.929V152H162.893ZM196.566 138.909V140.955H189.415V138.909H196.566ZM191.333 135.773H193.881V148.156C193.881 148.651 193.955 149.023 194.103 149.273C194.251 149.517 194.441 149.685 194.674 149.776C194.913 149.861 195.171 149.903 195.45 149.903C195.654 149.903 195.833 149.889 195.987 149.861C196.14 149.832 196.259 149.81 196.344 149.793L196.805 151.898C196.657 151.955 196.447 152.011 196.174 152.068C195.901 152.131 195.56 152.165 195.151 152.17C194.481 152.182 193.856 152.062 193.276 151.812C192.697 151.562 192.228 151.176 191.87 150.653C191.512 150.131 191.333 149.474 191.333 148.685V135.773ZM202.214 144.227V152H199.666V134.545H202.18V141.04H202.342C202.649 140.335 203.118 139.776 203.749 139.361C204.379 138.946 205.203 138.739 206.22 138.739C207.118 138.739 207.902 138.923 208.572 139.293C209.249 139.662 209.771 140.213 210.141 140.946C210.516 141.673 210.703 142.582 210.703 143.673V152H208.155V143.98C208.155 143.02 207.908 142.276 207.413 141.747C206.919 141.213 206.232 140.946 205.351 140.946C204.749 140.946 204.209 141.074 203.732 141.33C203.26 141.585 202.888 141.96 202.615 142.455C202.348 142.943 202.214 143.534 202.214 144.227ZM219.746 152.264C218.456 152.264 217.345 151.989 216.413 151.438C215.487 150.881 214.771 150.099 214.266 149.094C213.766 148.082 213.516 146.898 213.516 145.54C213.516 144.199 213.766 143.017 214.266 141.994C214.771 140.972 215.476 140.173 216.379 139.599C217.288 139.026 218.351 138.739 219.567 138.739C220.305 138.739 221.021 138.861 221.714 139.105C222.408 139.349 223.03 139.733 223.581 140.256C224.132 140.778 224.567 141.457 224.885 142.293C225.203 143.122 225.362 144.131 225.362 145.318V146.222H214.956V144.312H222.865C222.865 143.642 222.729 143.048 222.456 142.531C222.183 142.009 221.8 141.597 221.305 141.295C220.817 140.994 220.243 140.844 219.584 140.844C218.868 140.844 218.243 141.02 217.709 141.372C217.18 141.719 216.771 142.173 216.482 142.736C216.197 143.293 216.055 143.898 216.055 144.551V146.043C216.055 146.918 216.209 147.662 216.516 148.276C216.828 148.889 217.263 149.358 217.82 149.682C218.376 150 219.027 150.159 219.771 150.159C220.254 150.159 220.695 150.091 221.092 149.955C221.49 149.812 221.834 149.602 222.124 149.324C222.413 149.045 222.635 148.702 222.788 148.293L225.2 148.727C225.007 149.437 224.661 150.06 224.161 150.594C223.666 151.122 223.044 151.534 222.294 151.83C221.55 152.119 220.7 152.264 219.746 152.264ZM237.379 152L233.527 138.909H236.161L238.726 148.523H238.854L241.428 138.909H244.061L246.618 148.48H246.746L249.294 138.909H251.928L248.084 152H245.484L242.825 142.548H242.629L239.97 152H237.379ZM259.589 152.264C258.3 152.264 257.189 151.989 256.257 151.438C255.331 150.881 254.615 150.099 254.109 149.094C253.609 148.082 253.359 146.898 253.359 145.54C253.359 144.199 253.609 143.017 254.109 141.994C254.615 140.972 255.32 140.173 256.223 139.599C257.132 139.026 258.195 138.739 259.411 138.739C260.149 138.739 260.865 138.861 261.558 139.105C262.251 139.349 262.874 139.733 263.425 140.256C263.976 140.778 264.411 141.457 264.729 142.293C265.047 143.122 265.206 144.131 265.206 145.318V146.222H254.8V144.312H262.709C262.709 143.642 262.572 143.048 262.3 142.531C262.027 142.009 261.643 141.597 261.149 141.295C260.661 140.994 260.087 140.844 259.428 140.844C258.712 140.844 258.087 141.02 257.553 141.372C257.024 141.719 256.615 142.173 256.325 142.736C256.041 143.293 255.899 143.898 255.899 144.551V146.043C255.899 146.918 256.053 147.662 256.359 148.276C256.672 148.889 257.107 149.358 257.663 149.682C258.22 150 258.871 150.159 259.615 150.159C260.098 150.159 260.538 150.091 260.936 149.955C261.334 149.812 261.678 149.602 261.967 149.324C262.257 149.045 262.479 148.702 262.632 148.293L265.044 148.727C264.851 149.437 264.504 150.06 264.004 150.594C263.51 151.122 262.888 151.534 262.138 151.83C261.393 152.119 260.544 152.264 259.589 152.264ZM270.582 134.545V152H268.033V134.545H270.582ZM276.558 134.545V152H274.01V134.545H276.558Z" fill="white"/>
<defs>
<filter id="filter0_bd_41_159" x="-16" y="-20" width="364.102" height="270.458" filterUnits="userSpaceOnUse" color-interpolation-filters="sRGB">
<feFlood flood-opacity="0" result="BackgroundImageFix"/>
<feGaussianBlur in="BackgroundImageFix" stdDeviation="18"/>
<feComposite in2="SourceAlpha" operator="in" result="effect1_backgroundBlur_41_159"/>
<feColorMatrix in="SourceAlpha" type="matrix" values="0 0 0 0 0 0 0 0 0 0 0 0 0 0 0 0 0 0 127 0" result="hardAlpha"/>
<feOffset dy="4"/>
<feGaussianBlur stdDeviation="10"/>
<feComposite in2="hardAlpha" operator="out"/>
<feColorMatrix type="matrix" values="0 0 0 0 0 0 0 0 0 0 0 0 0 0 0 0 0 0 0.25 0"/>
<feBlend mode="normal" in2="effect1_backgroundBlur_41_159" result="effect2_dropShadow_41_159"/>
<feBlend mode="normal" in="SourceGraphic" in2="effect2_dropShadow_41_159" result="shape"/>
</filter>
</defs>
</svg>
